<svg xmlns="http://www.w3.org/2000/svg" xmlns:xlink="http://www.w3.org/1999/xlink" viewBox="0 0 197.73 216.04"><defs><linearGradient id="linear-gradient" x1="67.72" y1="74.84" x2="227.61" y2="159.85" gradientUnits="userSpaceOnUse"><stop offset="0"/><stop offset="0.06" stop-color="#040910"/><stop offset="0.17" stop-color="#0e213a"/><stop offset="0.32" stop-color="#1d4477"/><stop offset="0.53" stop-color="#065b9a"/><stop offset="0.59" stop-color="#0061a3"/><stop offset="1" stop-color="#0061a3"/></linearGradient><linearGradient id="linear-gradient-2" x1="111.16" y1="122.28" x2="8.84" y2="172.18" gradientUnits="userSpaceOnUse"><stop offset="0"/><stop offset="0.05" stop-color="#040910"/><stop offset="0.16" stop-color="#0e213a"/><stop offset="0.29" stop-color="#1d4477"/><stop offset="0.48" stop-color="#065b9a"/><stop offset="0.52" stop-color="#0061a3"/><stop offset="1" stop-color="#0061a3"/></linearGradient><linearGradient id="linear-gradient-3" x1="9.36" y1="148.71" x2="91.6" y2="-5.96" gradientUnits="userSpaceOnUse"><stop offset="0"/><stop offset="0.27" stop-color="#1d4477"/><stop offset="0.52" stop-color="#0061a3"/><stop offset="1" stop-color="#0061a3"/></linearGradient><linearGradient id="linear-gradient-4" x1="21.31" y1="187.63" x2="26.79" y2="177.32" xlink:href="#linear-gradient-3"/></defs><title>logo straight split</title><g id="Layer_2" data-name="Layer 2"><g id="Layer_2-2" data-name="Layer 2"><polygon points="85.69 55.15 152.73 216.04 197.73 216.04 107.52 0 85.69 55.15" fill="#0061a3"/><polygon points="85.69 55.15 152.73 216.04 197.73 216.04 107.52 0 85.69 55.15" opacity="0.5" fill="url(#linear-gradient)"/><polygon points="120.15 146.67 17.2 189.31 0 147.73 102.81 105.14 120.15 146.67" fill="#0061a3"/><polygon points="120.15 146.67 17.2 189.31 0 147.73 102.81 105.14 120.15 146.67" opacity="0.5" fill="url(#linear-gradient-2)"/><polygon points="54.35 121.25 102.81 0 58.02 0.04 0 143.73 54.35 121.25" fill="#0061a3"/><line x1="31.04" y1="179.59" x2="17.05" y2="185.37" fill="#0061a3"/><g opacity="0.5"><polygon points="54.35 121.25 102.81 0 58.02 0.04 0 143.73 54.35 121.25" fill="url(#linear-gradient-3)"/><line x1="31.04" y1="179.59" x2="17.05" y2="185.37" fill="url(#linear-gradient-4)"/></g></g></g></svg>