<svg xmlns="http://www.w3.org/2000/svg" xmlns:xlink="http://www.w3.org/1999/xlink" viewBox="0 0 192.81 216.07"><defs><linearGradient id="linear-gradient" x1="62.8" y1="74.88" x2="222.68" y2="159.89" gradientUnits="userSpaceOnUse"><stop offset="0"/><stop offset="0.06" stop-color="#040910"/><stop offset="0.17" stop-color="#0e213a"/><stop offset="0.32" stop-color="#1d4477"/><stop offset="0.53" stop-color="#065b9a"/><stop offset="0.59" stop-color="#0061a3"/><stop offset="1" stop-color="#0061a3"/></linearGradient><linearGradient id="linear-gradient-2" x1="108.86" y1="119.43" x2="8.82" y2="168.22" gradientUnits="userSpaceOnUse"><stop offset="0"/><stop offset="0.05" stop-color="#040910"/><stop offset="0.16" stop-color="#0e213a"/><stop offset="0.29" stop-color="#1d4477"/><stop offset="0.48" stop-color="#065b9a"/><stop offset="0.52" stop-color="#0061a3"/><stop offset="1" stop-color="#0061a3"/></linearGradient><linearGradient id="linear-gradient-3" x1="9.36" y1="148.74" x2="91.6" y2="-5.92" gradientUnits="userSpaceOnUse"><stop offset="0"/><stop offset="0.27" stop-color="#1d4477"/><stop offset="0.52" stop-color="#0061a3"/><stop offset="1" stop-color="#0061a3"/></linearGradient><linearGradient id="linear-gradient-4" x1="21.31" y1="187.67" x2="26.79" y2="177.36" xlink:href="#linear-gradient-3"/></defs><title>logo straight</title><g id="Layer_2" data-name="Layer 2"><g id="Layer_2-2" data-name="Layer 2"><polygon points="80.77 55.15 147.81 216.04 192.81 216.04 102.59 0 80.77 55.15" fill="#0061a3"/><polygon points="80.77 55.18 147.81 216.07 192.81 216.07 102.59 0.04 80.77 55.18" opacity="0.5" fill="url(#linear-gradient)"/><polygon points="117.81 143.73 17.2 185.37 0 143.79 100.47 102.2 117.81 143.73" fill="#0061a3"/><polygon points="117.81 143.76 17.2 185.41 0 143.82 100.47 102.24 117.81 143.76" opacity="0.5" fill="url(#linear-gradient-2)"/><polygon points="54.35 121.25 102.81 0 58.02 0.04 0 143.73 54.35 121.25" fill="#0061a3"/><line x1="31.04" y1="179.59" x2="17.05" y2="185.37" fill="#0061a3"/><g opacity="0.5"><polygon points="54.35 121.29 102.81 0.04 58.02 0.07 0 143.76 54.35 121.29" fill="url(#linear-gradient-3)"/><line x1="31.04" y1="179.62" x2="17.05" y2="185.41" fill="url(#linear-gradient-4)"/></g></g></g></svg>