<svg xmlns="http://www.w3.org/2000/svg" xmlns:xlink="http://www.w3.org/1999/xlink" viewBox="0 0 192.02 216"><defs><linearGradient id="linear-gradient" x1="57.37" y1="72.85" x2="221.68" y2="160.22" gradientUnits="userSpaceOnUse"><stop offset="0"/><stop offset="0.06" stop-color="#040910"/><stop offset="0.17" stop-color="#0e213a"/><stop offset="0.32" stop-color="#1d4477"/><stop offset="0.53" stop-color="#065b9a"/><stop offset="0.59" stop-color="#0061a3"/><stop offset="1" stop-color="#0061a3"/></linearGradient><linearGradient id="linear-gradient-2" x1="8.95" y1="142.9" x2="88.23" y2="-6.21" xlink:href="#linear-gradient"/><linearGradient id="linear-gradient-3" x1="0.43" y1="137.16" x2="0.41" y2="137.17" gradientUnits="userSpaceOnUse"><stop offset="0"/><stop offset="0.05" stop-color="#040910"/><stop offset="0.16" stop-color="#0e213a"/><stop offset="0.29" stop-color="#1d4477"/><stop offset="0.48" stop-color="#065b9a"/><stop offset="0.52" stop-color="#0061a3"/><stop offset="1" stop-color="#0061a3"/></linearGradient><linearGradient id="linear-gradient-4" x1="106.71" y1="116.48" x2="10.2" y2="163.55" xlink:href="#linear-gradient-3"/></defs><title>logo rounded</title><g id="Layer_2" data-name="Layer 2"><g id="Layer_2-2" data-name="Layer 2"><path d="M210.73,180" fill="#3fa7f3"/><path d="M103,2.81h0a4.49,4.49,0,1,0-7.72,4.42L77.07,48.12,147,216h45Z" fill="#0061a3"/><path d="M103,2.81h0a4.49,4.49,0,1,0-7.72,4.42L77.07,48.12,147,216h45Z" opacity="0.5" fill="url(#linear-gradient)"/><circle cx="4.5" cy="135.46" r="4.5" fill="#ff7baa"/><path d="M50.67,121.25,95.74,8.46c3.15-7.88,6-7.38,6-7.38A4.37,4.37,0,0,0,99.12,0H94.66L57.38,0h0a4.57,4.57,0,0,0-4.2,2.88L.35,133.79h0s0,0,0-.05a4.49,4.49,0,0,0,5.8,5.9l-.07,0" fill="#0061a3"/><path d="M.42,137.34.27,137A3.35,3.35,0,0,0,.42,137.34Z" fill="#0061a3"/><path d="M99.14,101.1l-93,38.53h0a4.12,4.12,0,0,1-1.67.32,4.51,4.51,0,0,1-4.08-2.61l1,2.5h0l0,.1h0l.07.17,0,0,15.84,38.2a4.44,4.44,0,0,0,.3.73l.06.15h0a4.44,4.44,0,0,0,5.53,2v0l93.14-38.61Z" fill="#0061a3"/><path d="M50.67,121.25,95.74,8.46c3.15-7.88,6-7.38,6-7.38A4.37,4.37,0,0,0,99.12,0H94.66L57.38,0h0a4.57,4.57,0,0,0-4.2,2.88L.35,133.79h0s0,0,0-.05a4.49,4.49,0,0,0,5.8,5.9l-.07,0" fill="url(#linear-gradient-2)"/><path d="M.49,137.34.34,137A3.35,3.35,0,0,0,.49,137.34Z" fill="url(#linear-gradient-3)"/><path d="M99.21,101.1l-93,38.53h0a4.12,4.12,0,0,1-1.67.32,4.51,4.51,0,0,1-4.08-2.61l1,2.5h0l0,.1h0l.07.17,0,0,15.84,38.2a4.44,4.44,0,0,0,.3.73l.06.15h0a4.44,4.44,0,0,0,5.53,2v0l93.14-38.61Z" fill="url(#linear-gradient-4)"/></g></g></svg>