<svg xmlns="http://www.w3.org/2000/svg" xmlns:xlink="http://www.w3.org/1999/xlink" viewBox="0 0 424.85 163.02"><defs><style>.cls-1{fill:#0061a3;}.cls-2,.cls-3,.cls-4{opacity:0.5;}.cls-2{fill:url(#linear-gradient);}.cls-3{fill:url(#linear-gradient-2);}.cls-5{fill:url(#linear-gradient-3);}.cls-6{fill:url(#linear-gradient-4);}</style><linearGradient id="linear-gradient" x1="43.28" y1="54.98" x2="167.29" y2="120.92" gradientUnits="userSpaceOnUse"><stop offset="0"/><stop offset="0.06" stop-color="#040910"/><stop offset="0.17" stop-color="#0e213a"/><stop offset="0.32" stop-color="#1d4477"/><stop offset="0.53" stop-color="#065b9a"/><stop offset="0.59" stop-color="#0061a3"/><stop offset="1" stop-color="#0061a3"/></linearGradient><linearGradient id="linear-gradient-2" x1="6.73" y1="107.85" x2="66.57" y2="-4.69" xlink:href="#linear-gradient"/><linearGradient id="linear-gradient-3" x1="0.3" y1="103.52" x2="0.28" y2="103.53" gradientUnits="userSpaceOnUse"><stop offset="0"/><stop offset="0.05" stop-color="#040910"/><stop offset="0.16" stop-color="#0e213a"/><stop offset="0.29" stop-color="#1d4477"/><stop offset="0.48" stop-color="#065b9a"/><stop offset="0.52" stop-color="#0061a3"/><stop offset="1" stop-color="#0061a3"/></linearGradient><linearGradient id="linear-gradient-4" x1="80.52" y1="87.91" x2="7.68" y2="123.44" xlink:href="#linear-gradient-3"/></defs><title>Asset 5</title><g id="Layer_2" data-name="Layer 2"><g id="Layer_2-2" data-name="Layer 2"><path d="M185.84,112.73a4.14,4.14,0,0,0,1.19-2.85,4.28,4.28,0,0,0-4.15-4.15,3.62,3.62,0,0,0-2.61,1.19c-4.51,4.27-10.08,7.47-17.08,7.47-12.81,0-22.53-10.56-22.53-23.84v-.24c0-13.17,9.49-23.72,21.94-23.72,7.35,0,12.33,3.32,16.72,7.35a4.72,4.72,0,0,0,3,1.07,4.38,4.38,0,0,0,4.39-4.39,4.29,4.29,0,0,0-1.42-3.2,31.7,31.7,0,0,0-22.53-8.89c-17.91,0-31.43,14.71-31.43,32v.24a31.48,31.48,0,0,0,31.43,31.79C173,122.58,180,118.54,185.84,112.73Z"/><path d="M223.32,122.22a23.07,23.07,0,0,0,9-1.66,3.81,3.81,0,0,0,2.61-3.56,4,4,0,0,0-3.91-3.91,25.86,25.86,0,0,1-5.58.83c-6.17,0-10.32-2.73-10.32-10.2V67.9H231a4.1,4.1,0,0,0,4.15-4,4.18,4.18,0,0,0-4.15-4H215.13V45.37a4.71,4.71,0,0,0-4.63-4.62A4.53,4.53,0,0,0,206,45.37V59.84h-5a4.08,4.08,0,0,0-4,4,4.16,4.16,0,0,0,4,4h5v37C206,117.36,213.47,122.22,223.32,122.22Z"/><path d="M256.05,47c3.08,0,5.46-2,5.46-4.86V40.62c0-3-2.37-4.86-5.46-4.86s-5.34,1.9-5.34,4.86v1.54C250.71,45,253.09,47,256.05,47Z"/><path d="M260.68,117.12V63.87a4.56,4.56,0,0,0-4.63-4.63,4.61,4.61,0,0,0-4.51,4.63v53.25a4.56,4.56,0,0,0,4.62,4.63A4.46,4.46,0,0,0,260.68,117.12Z"/><path d="M300.88,118.19c1.07,2.37,2.73,3.91,5.22,3.91h.47c2.49,0,4-1.54,5.1-3.91L334.8,66a6.34,6.34,0,0,0,.47-2.25,4.5,4.5,0,0,0-4.51-4.51,4.37,4.37,0,0,0-4.27,3.32l-20.16,48.15L286.53,62.8c-.71-2-2-3.56-4.63-3.56a4.61,4.61,0,0,0-4.63,4.51,9.5,9.5,0,0,0,.59,2.49Z"/><path d="M163.16,142.38a4,4,0,0,0,2.66-3.88v0a3.72,3.72,0,0,0-1.08-2.68,6.15,6.15,0,0,0-4.38-1.48h-6.2a1,1,0,0,0-.93,1v14.84a1,1,0,0,0,.93,1h6.51c3.66,0,6.08-1.7,6.08-4.57v0C166.75,144.12,165.15,143,163.16,142.38ZM155.1,136h5.1c2.39,0,3.71,1.08,3.71,2.73v0c0,2-1.58,3-3.85,3h-5Zm9.74,10.36c0,1.87-1.58,3-4.12,3H155.1v-5.91h5.29c2.92,0,4.45,1.05,4.45,2.87Z"/><path d="M183.27,134.17a1,1,0,0,0-1,1V144c0,3.66-2,5.53-5,5.53s-5.12-2-5.12-5.65v-8.78a.95.95,0,1,0-1.89,0V144c0,4.74,2.82,7.28,7,7.28s7-2.54,7-7.42v-8.76A1,1,0,0,0,183.27,134.17Z"/><path d="M194.69,141.76c-3.69-.79-4.55-1.68-4.55-3.25v0c0-1.51,1.39-2.7,3.57-2.7a7,7,0,0,1,4.33,1.46.88.88,0,0,0,.55.17.91.91,0,0,0,.91-.91,1,1,0,0,0-.41-.77,8.54,8.54,0,0,0-5.34-1.65c-3.18,0-5.5,1.94-5.5,4.57v0c0,2.75,1.77,4,5.62,4.83,3.52.74,4.36,1.63,4.36,3.18v0c0,1.65-1.48,2.85-3.73,2.85a7.61,7.61,0,0,1-5.29-2,.84.84,0,0,0-.57-.22.91.91,0,0,0-.91.93.85.85,0,0,0,.36.72,9.79,9.79,0,0,0,6.34,2.25c3.33,0,5.72-1.87,5.72-4.74v0C200.14,143.93,198.42,142.57,194.69,141.76Z"/><path d="M205.1,134.17a1,1,0,0,0-.93,1V150.2a.95.95,0,1,0,1.89,0V135.13A1,1,0,0,0,205.1,134.17Z"/><path d="M224.22,134.17a.93.93,0,0,0-.93.93v12.63l-10.17-13a1.16,1.16,0,0,0-1-.55h-.26a1,1,0,0,0-.93.93v15.08a.92.92,0,1,0,1.84,0v-13l10.39,13.28a1.3,1.3,0,0,0,1,.57h.1a.85.85,0,0,0,.86-.89V135.1A.93.93,0,0,0,224.22,134.17Z"/><path d="M241.34,149.32h-9.57v-5.86h8.38a.86.86,0,0,0,.86-.86.87.87,0,0,0-.86-.86h-8.38V136h9.45a.86.86,0,0,0,0-1.72H230.81a1,1,0,0,0-.93,1v14.84a1,1,0,0,0,.93,1h10.53a.86.86,0,0,0,0-1.72Z"/><path d="M251.92,141.76c-3.69-.79-4.55-1.68-4.55-3.25v0c0-1.51,1.39-2.7,3.57-2.7a7,7,0,0,1,4.33,1.46.88.88,0,0,0,.55.17.91.91,0,0,0,.91-.91,1,1,0,0,0-.41-.77,8.55,8.55,0,0,0-5.34-1.65c-3.18,0-5.5,1.94-5.5,4.57v0c0,2.75,1.77,4,5.62,4.83,3.52.74,4.36,1.63,4.36,3.18v0c0,1.65-1.48,2.85-3.73,2.85a7.61,7.61,0,0,1-5.29-2,.84.84,0,0,0-.58-.22.91.91,0,0,0-.91.93.85.85,0,0,0,.36.72,9.78,9.78,0,0,0,6.34,2.25c3.33,0,5.72-1.87,5.72-4.74v0C257.37,143.93,255.65,142.57,251.92,141.76Z"/><path d="M267,141.76c-3.69-.79-4.55-1.68-4.55-3.25v0c0-1.51,1.39-2.7,3.57-2.7a7,7,0,0,1,4.33,1.46.88.88,0,0,0,.55.17.91.91,0,0,0,.91-.91,1,1,0,0,0-.41-.77,8.55,8.55,0,0,0-5.34-1.65c-3.18,0-5.5,1.94-5.5,4.57v0c0,2.75,1.77,4,5.62,4.83,3.52.74,4.36,1.63,4.36,3.18v0c0,1.65-1.48,2.85-3.73,2.85a7.61,7.61,0,0,1-5.29-2,.84.84,0,0,0-.58-.22.91.91,0,0,0-.91.93.85.85,0,0,0,.36.72,9.78,9.78,0,0,0,6.34,2.25c3.33,0,5.72-1.87,5.72-4.74v0C272.45,143.93,270.73,142.57,267,141.76Z"/><path d="M289.5,141.76c-3.69-.79-4.55-1.68-4.55-3.25v0c0-1.51,1.39-2.7,3.57-2.7a7,7,0,0,1,4.33,1.46.88.88,0,0,0,.55.17.91.91,0,0,0,.91-.91,1,1,0,0,0-.41-.77,8.55,8.55,0,0,0-5.34-1.65c-3.18,0-5.5,1.94-5.5,4.57v0c0,2.75,1.77,4,5.62,4.83,3.52.74,4.36,1.63,4.36,3.18v0c0,1.65-1.48,2.85-3.73,2.85a7.61,7.61,0,0,1-5.29-2,.84.84,0,0,0-.57-.22.91.91,0,0,0-.91.93.85.85,0,0,0,.36.72,9.79,9.79,0,0,0,6.34,2.25c3.33,0,5.72-1.87,5.72-4.74v0C295,143.93,293.23,142.57,289.5,141.76Z"/><path d="M306.64,134a8.49,8.49,0,0,0-8.57,8.66v0a8.54,8.54,0,1,0,17.09,0v0A8.41,8.41,0,0,0,306.64,134Zm6.56,8.71a6.58,6.58,0,0,1-6.56,6.87,6.66,6.66,0,0,1-6.6-6.92v0a6.58,6.58,0,0,1,6.56-6.87,6.66,6.66,0,0,1,6.6,6.92Z"/><path d="M329.73,149.29H321V135.13a.95.95,0,1,0-1.89,0v15a1,1,0,0,0,.93,1h9.64a.86.86,0,0,0,.86-.86A.88.88,0,0,0,329.73,149.29Z"/><path d="M346.25,134.17a1,1,0,0,0-1,1V144c0,3.66-2,5.53-5,5.53s-5.12-2-5.12-5.65v-8.78a.95.95,0,1,0-1.89,0V144c0,4.74,2.82,7.28,7,7.28s7-2.54,7-7.42v-8.76A1,1,0,0,0,346.25,134.17Z"/><path d="M362.86,134.29H351.23a.9.9,0,0,0-.89.89.88.88,0,0,0,.89.86h4.86V150.2a1,1,0,1,0,1.91,0V136h4.86a.88.88,0,0,0,.89-.86A.9.9,0,0,0,362.86,134.29Z"/><path d="M368.27,134.17a1,1,0,0,0-.93,1V150.2a.95.95,0,1,0,1.89,0V135.13A1,1,0,0,0,368.27,134.17Z"/><path d="M382,134a8.49,8.49,0,0,0-8.57,8.66v0a8.54,8.54,0,1,0,17.09,0v0A8.41,8.41,0,0,0,382,134Zm6.56,8.71a6.58,6.58,0,0,1-6.56,6.87,6.66,6.66,0,0,1-6.6-6.92v0a6.58,6.58,0,0,1,6.56-6.87,6.66,6.66,0,0,1,6.6,6.92Z"/><path d="M407.74,134.17a.93.93,0,0,0-.93.93v12.63l-10.17-13a1.16,1.16,0,0,0-1-.55h-.26a1,1,0,0,0-.93.93v15.08a.92.92,0,1,0,1.84,0v-13l10.39,13.28a1.3,1.3,0,0,0,1,.57h.1a.85.85,0,0,0,.86-.89V135.1A.93.93,0,0,0,407.74,134.17Z"/><path d="M419.4,141.76c-3.69-.79-4.55-1.68-4.55-3.25v0c0-1.51,1.39-2.7,3.57-2.7a7,7,0,0,1,4.33,1.46.88.88,0,0,0,.55.17.91.91,0,0,0,.91-.91,1,1,0,0,0-.41-.77,8.55,8.55,0,0,0-5.34-1.65c-3.18,0-5.5,1.94-5.5,4.57v0c0,2.75,1.77,4,5.62,4.83,3.52.74,4.36,1.63,4.36,3.18v0c0,1.65-1.48,2.85-3.73,2.85a7.61,7.61,0,0,1-5.29-2,.84.84,0,0,0-.57-.22.91.91,0,0,0-.91.93.85.85,0,0,0,.36.72,9.79,9.79,0,0,0,6.34,2.25c3.33,0,5.72-1.87,5.72-4.74v0C424.85,143.93,423.13,142.57,419.4,141.76Z"/><path class="cls-1" d="M77.71,2.12h0a3.39,3.39,0,1,0-5.83,3.34L58.14,36.32,110.94,163h34Z"/><path class="cls-2" d="M77.71,2.12h0a3.39,3.39,0,1,0-5.83,3.34L58.14,36.32,110.94,163h34Z"/><path class="cls-1" d="M38.22,91.51l34-85.12C74.62.44,76.73.81,76.73.81A3.3,3.3,0,0,0,74.79,0H71.42L43.28,0h0A3.45,3.45,0,0,0,40.11,2.2L.24,101h0s0,0,0,0a3.39,3.39,0,0,0,4.38,4.45l-.05,0"/><path class="cls-1" d="M.29,103.66l-.11-.26A2.52,2.52,0,0,0,.29,103.66Z"/><path class="cls-1" d="M74.8,76.3,4.64,105.39h0a3.11,3.11,0,0,1-1.26.24,3.4,3.4,0,0,1-3.08-2l.78,1.89h0l0,.08h0l.05.13v0l12,28.83a3.35,3.35,0,0,0,.23.55l0,.11h0a3.35,3.35,0,0,0,4.17,1.48v0l70.29-29.14Z"/><path class="cls-3" d="M38.22,91.51l34-85.12C74.62.44,76.73.81,76.73.81A3.3,3.3,0,0,0,74.79,0H71.42L43.28,0h0A3.45,3.45,0,0,0,40.11,2.2L.24,101h0s0,0,0,0a3.39,3.39,0,0,0,4.38,4.45l-.05,0"/><g class="cls-4"><path class="cls-5" d="M.35,103.66l-.11-.26A2.52,2.52,0,0,0,.35,103.66Z"/><path class="cls-6" d="M74.86,76.3,4.7,105.39h0a3.11,3.11,0,0,1-1.26.24,3.4,3.4,0,0,1-3.08-2l.78,1.89h0l0,.08h0l.05.13v0l12,28.83a3.35,3.35,0,0,0,.23.55l0,.11h0a3.35,3.35,0,0,0,4.17,1.48v0l70.29-29.14Z"/></g></g></g></svg>